# xmcd
# 
# Track frame offsets:
#     150
#     5716
#     23353
#     43207
#     68460
#     88747
#     108555
#     140804
#     163226
#     184308
#     205234
#     226384
#     245444
#     268312
#     290636
# 
# Disc length: 4318
# 
# Revision: 2
# Processed by: cddbd v1.5.2PL0 Copyright (c) Steve Scherf et al.
# Submitted via: fre:ac v1.0.17
# 
DISCID=e110dc0f
DTITLE=Schiller - Sonne Disc 1
DYEAR=2012
DGENRE=New Age
TTITLE0=Willkommen
TTITLE1=Solaris
TTITLE2=Kon-Tiki
TTITLE3=Revelation
TTITLE4=Sonne (Mit Unheilig)
TTITLE5=Mitternacht
TTITLE6=Hallucinating Beauty (Mit Kate Havnevik)
TTITLE7=Morgenrot
TTITLE8=Alive (Mit Adam Young)
TTITLE9=Berlin - Moskau
TTITLE10=Lichtermeer
TTITLE11=Soleil De Nuit (Mit Pierre Maubouché)
TTITLE12=Reach Out (Mit Meredith Call)
TTITLE13=Das Dritte Auge
TTITLE14=Velvet Aeroplane (Mit Kate Havnevik)
EXTD=YEAR: 2012
EXTT0=
EXTT1=
EXTT2=
EXTT3=
EXTT4=
EXTT5=
EXTT6=
EXTT7=
EXTT8=
EXTT9=
EXTT10=
EXTT11=
EXTT12=
EXTT13=
EXTT14=
PLAYORDER=
